<svg xmlns="http://www.w3.org/2000/svg" xmlns:xlink="http://www.w3.org/1999/xlink" xml:space="preserve" version="1.1" style="shape-rendering:geometricPrecision;text-rendering:geometricPrecision;image-rendering:optimizeQuality;" viewBox="0 0 100 125" x="0px" y="0px" fill-rule="evenodd" clip-rule="evenodd"><defs><style type="text/css">
   
    .fil0 {fill:black;fill-rule:nonzero}
   
  </style></defs><g><path class="fil0" d="M76.33 37.81l-5.4 5.41 -0.42 -0.39c-2.53,-2.32 -5.35,-4.22 -8.38,-5.67 0.46,-2.17 0.92,-4.34 1.37,-6.51 0.04,-0.18 0.06,-0.35 0.06,-0.53 4.56,1.48 8.88,3.76 12.72,6.81l0.52 0.41 -0.47 0.47zm-24.15 40.98l0.53 -2.55 0.56 -2.63 2.04 -9.74 0.56 -2.63 5.17 -24.58 1.2 -5.72c0.1,-0.5 0.27,-1.06 -0.04,-1.52 -0.15,-0.27 -0.4,-0.48 -0.72,-0.56 -0.32,-0.09 -0.64,-0.03 -0.91,0.12 -0.53,0.3 -0.61,0.76 -0.8,1.31l-1.71 5.24 -7.91 24.18 -0.84 2.55 -3.09 9.45 -0.84 2.56 -0.81 2.48c-0.2,0.76 -0.18,1.67 0.18,2.49 0.37,0.82 1.11,1.56 2.35,1.97l0.67 0.18c1.27,0.26 2.27,-0.01 3,-0.53 0.73,-0.53 1.2,-1.31 1.41,-2.07zm26.77 -39.55c4.66,4.38 7.87,9.2 9.9,14.5 2.03,5.3 2.9,11.07 2.9,17.37l0 0.59 -10.11 0 0 -0.59c-0.01,-5.11 -0.46,-9.66 -1.77,-13.89 -1.31,-4.2 -3.49,-8.11 -6.96,-11.96l-0.37 -0.41 5.99 -6 0.42 0.39zm-68.85 31.87c0,-5.27 0.54,-10.05 1.92,-14.57 1.38,-4.53 3.6,-8.79 6.97,-13.02 2.72,-3.41 5.99,-6.4 9.7,-8.8 3.6,-2.35 7.63,-4.15 11.96,-5.27l0.74 -0.19 0 5.06 -0.43 0.12c-3.62,1.04 -6.99,2.63 -10.01,4.65 -3.09,2.06 -5.83,4.6 -8.13,7.48 -3,3.77 -4.95,7.54 -6.15,11.54 -1.2,4.01 -1.66,8.27 -1.66,13l0 0.59 -4.91 0 0 -0.59zm46.79 -9l0.01 0.01c1.52,1.51 2.46,3.61 2.46,5.92 0,2.32 -0.94,4.41 -2.46,5.92 -0.81,0.82 -1.8,1.47 -2.9,1.9l0.64 -3.05c0.21,-0.16 0.41,-0.33 0.59,-0.52 1.09,-1.08 1.76,-2.59 1.76,-4.25 0,-1.05 -0.27,-2.03 -0.74,-2.89l0.64 -3.04zm-12.44 11.17c-1.16,-1.43 -1.84,-3.25 -1.84,-5.24 0,-2.31 0.93,-4.41 2.45,-5.92 1.02,-1.02 2.29,-1.77 3.73,-2.16l-0.98 2.97c-0.39,0.25 -0.76,0.53 -1.08,0.86 -1.09,1.09 -1.76,2.59 -1.76,4.25 0,0.8 0.15,1.57 0.44,2.27l-0.96 2.97zm12.48 -38.1c-4.04,-1.18 -8.31,-1.61 -12.61,-1.23l-0.64 0.05 0 -5.22 0.5 -0.08c4.97,-0.84 10,-0.74 14.85,0.23 -0.08,0.15 -0.15,0.31 -0.2,0.47l-1.9 5.78z"/></g><text x="0" y="115" fill="#000000" font-size="5px" font-weight="bold" font-family="'Helvetica Neue', Helvetica, Arial-Unicode, Arial, Sans-serif">Created by Rinat Mikiev</text><text x="0" y="120" fill="#000000" font-size="5px" font-weight="bold" font-family="'Helvetica Neue', Helvetica, Arial-Unicode, Arial, Sans-serif">from the Noun Project</text></svg>