<svg xmlns="http://www.w3.org/2000/svg" data-name="Layer 1" viewBox="0 0 100 125" x="0px" y="0px"><title>Noun_Project_100Icon_1px_grid</title><path d="M68.1,42.8a2.7,2.7,0,0,0,0,3.9,26,26,0,0,1,7.7,18.5,2.7,2.7,0,0,0,5.4,0,31.4,31.4,0,0,0-9.3-22.4A2.7,2.7,0,0,0,68.1,42.8Z"/><path d="M20.6,67.9a2.7,2.7,0,0,0,2.7-2.7A26.2,26.2,0,0,1,49.5,38.9a2.7,2.7,0,1,0,0-5.4A31.7,31.7,0,0,0,17.9,65.2,2.7,2.7,0,0,0,20.6,67.9Z"/><path d="M64.2,32.7L45.4,62.3a3.4,3.4,0,0,0-.5,2.6,2.6,2.6,0,0,0,1.2,1.7,2.5,2.5,0,0,0,1.3.3h0.8a3.4,3.4,0,0,0,2-1.7l16.4-31A1.4,1.4,0,0,0,64.2,32.7Z"/><text x="0" y="115" fill="#000000" font-size="5px" font-weight="bold" font-family="'Helvetica Neue', Helvetica, Arial-Unicode, Arial, Sans-serif">Created by Yana Sapegina</text><text x="0" y="120" fill="#000000" font-size="5px" font-weight="bold" font-family="'Helvetica Neue', Helvetica, Arial-Unicode, Arial, Sans-serif">from the Noun Project</text></svg>